<svg width="339" height="203" viewBox="0 0 339 203" fill="none" xmlns="http://www.w3.org/2000/svg">
<path d="M157.5 4.33013C162.141 1.65064 167.859 1.65064 172.5 4.33013L212.926 27.6699C217.567 30.3494 220.426 35.3013 220.426 40.6603V87.3397C220.426 92.6987 217.567 97.6506 212.926 100.33L172.5 123.67C167.859 126.349 162.141 126.349 157.5 123.67L117.074 100.33C112.433 97.6506 109.574 92.6987 109.574 87.3397V40.6603C109.574 35.3013 112.433 30.3494 117.074 27.6699L157.5 4.33013Z" fill="url(#paint0_linear_307_29)"/>
<path d="M21.4531 156V133.25H28.25L33.2031 147.281C33.3177 147.646 33.4219 147.99 33.5156 148.312C33.6094 148.635 33.6875 148.99 33.75 149.375H33.8438C33.9062 148.99 33.9844 148.635 34.0781 148.312C34.1719 147.979 34.2812 147.635 34.4062 147.281L39.3594 133.25H46.2188V156H41.1875V141.969C41.1875 141.615 41.1927 141.224 41.2031 140.797C41.2135 140.37 41.2344 139.984 41.2656 139.641H41.1562C41.1042 139.995 41.026 140.385 40.9219 140.812C40.8177 141.229 40.7083 141.615 40.5938 141.969L35.7344 156H31.375L26.5156 141.969C26.401 141.615 26.2865 141.214 26.1719 140.766C26.0677 140.318 25.9948 139.943 25.9531 139.641H25.8438C25.8646 139.943 25.8802 140.318 25.8906 140.766C25.9115 141.214 25.9219 141.615 25.9219 141.969V156H21.4531ZM50.2031 156V133.25H55.2969V152.047H64.6406V156H50.2031ZM74.7969 156V133.25H83.8438C86.3542 133.25 88.276 133.922 89.6094 135.266C90.9427 136.599 91.6094 138.443 91.6094 140.797C91.6094 143.13 90.9479 144.974 89.625 146.328C88.3021 147.682 86.3594 148.359 83.7969 148.359H79.8906V156H74.7969ZM79.8906 144.719H83C84.3229 144.719 85.2396 144.365 85.75 143.656C86.2708 142.938 86.5312 142 86.5312 140.844C86.5312 139.698 86.2708 138.776 85.75 138.078C85.2396 137.37 84.3229 137.016 83 137.016H79.8906V144.719ZM93.9688 156V140.406H98.8125L98.875 142.281H98.9219C99.2865 141.646 99.7708 141.115 100.375 140.688C100.99 140.25 101.688 140.031 102.469 140.031C102.719 140.031 102.964 140.057 103.203 140.109C103.453 140.151 103.63 140.193 103.734 140.234V144.203C103.547 144.141 103.333 144.094 103.094 144.062C102.854 144.031 102.594 144.016 102.312 144.016C101.615 144.016 100.964 144.229 100.359 144.656C99.7552 145.083 99.2969 145.635 98.9844 146.312V156H93.9688ZM104.734 148.438V147.922C104.734 145.495 105.5 143.557 107.031 142.109C108.573 140.661 110.594 139.938 113.094 139.938C115.604 139.938 117.625 140.661 119.156 142.109C120.698 143.557 121.469 145.495 121.469 147.922V148.438C121.469 150.865 120.698 152.802 119.156 154.25C117.625 155.698 115.604 156.422 113.094 156.422C110.594 156.422 108.573 155.698 107.031 154.25C105.5 152.802 104.734 150.865 104.734 148.438ZM109.75 147.703V148.641C109.75 149.964 110.036 150.995 110.609 151.734C111.193 152.464 112.021 152.828 113.094 152.828C114.177 152.828 115.005 152.464 115.578 151.734C116.161 150.995 116.453 149.964 116.453 148.641V147.703C116.453 146.391 116.161 145.375 115.578 144.656C114.995 143.927 114.167 143.562 113.094 143.562C112.031 143.562 111.208 143.927 110.625 144.656C110.042 145.375 109.75 146.391 109.75 147.703ZM120.578 162.453L120.516 158.859C120.703 158.911 120.979 158.974 121.344 159.047C121.698 159.12 122.068 159.156 122.453 159.156C123.099 159.156 123.573 158.958 123.875 158.562C124.177 158.177 124.328 157.474 124.328 156.453V140.406H129.281V156.719C129.281 158.792 128.776 160.328 127.766 161.328C126.755 162.328 125.297 162.828 123.391 162.828C122.943 162.828 122.432 162.786 121.859 162.703C121.276 162.63 120.849 162.547 120.578 162.453ZM123.969 135.625C123.969 134.896 124.214 134.286 124.703 133.797C125.193 133.297 125.896 133.047 126.812 133.047C127.729 133.047 128.427 133.297 128.906 133.797C129.396 134.286 129.641 134.896 129.641 135.625C129.641 136.354 129.391 136.974 128.891 137.484C128.401 137.984 127.703 138.234 126.797 138.234C125.88 138.234 125.177 137.984 124.688 137.484C124.208 136.974 123.969 136.354 123.969 135.625ZM131.953 148.422V147.922C131.953 145.505 132.703 143.573 134.203 142.125C135.703 140.667 137.656 139.938 140.062 139.938C142.458 139.938 144.323 140.63 145.656 142.016C147 143.391 147.672 145.281 147.672 147.688V149.266H134.969V146.484H142.859V146.234C142.859 145.432 142.62 144.766 142.141 144.234C141.661 143.693 140.958 143.422 140.031 143.422C139 143.422 138.214 143.802 137.672 144.562C137.13 145.323 136.859 146.318 136.859 147.547V148.578C136.859 149.922 137.151 150.979 137.734 151.75C138.318 152.51 139.172 152.891 140.297 152.891C141.089 152.891 141.766 152.708 142.328 152.344C142.901 151.969 143.354 151.521 143.688 151L147.469 152.719C146.958 153.833 146.104 154.734 144.906 155.422C143.708 156.099 142.193 156.438 140.359 156.438C137.724 156.438 135.661 155.714 134.172 154.266C132.693 152.807 131.953 150.859 131.953 148.422ZM149.359 148.438V147.922C149.359 145.453 150.099 143.505 151.578 142.078C153.068 140.651 155.047 139.938 157.516 139.938C159.922 139.938 161.76 140.495 163.031 141.609C164.302 142.724 164.979 144.161 165.062 145.922L165.094 146.234H160.297V146.031C160.297 145.281 160.068 144.677 159.609 144.219C159.161 143.75 158.484 143.516 157.578 143.516C156.526 143.516 155.729 143.885 155.188 144.625C154.646 145.365 154.375 146.391 154.375 147.703V148.641C154.375 149.943 154.641 150.974 155.172 151.734C155.703 152.495 156.5 152.875 157.562 152.875C158.531 152.875 159.229 152.635 159.656 152.156C160.083 151.667 160.302 151.068 160.312 150.359V150.172H165.094L165.078 150.422C165.068 152.161 164.406 153.599 163.094 154.734C161.792 155.859 159.938 156.422 157.531 156.422C155.062 156.422 153.083 155.708 151.594 154.281C150.104 152.844 149.359 150.896 149.359 148.438ZM165.828 143.969V140.406H176.172V143.969H165.828ZM168.188 151.25V141.719L168.266 141.375V136.141H173.062V150.641C173.062 151.505 173.198 152.083 173.469 152.375C173.75 152.667 174.156 152.812 174.688 152.812C174.948 152.812 175.198 152.786 175.438 152.734C175.677 152.682 175.911 152.615 176.141 152.531V155.953C175.87 156.068 175.479 156.172 174.969 156.266C174.458 156.359 173.859 156.406 173.172 156.406C171.63 156.406 170.411 155.995 169.516 155.172C168.63 154.349 168.188 153.042 168.188 151.25ZM184.109 137.203V133.25H202.109V137.203H195.672V156H190.547V137.203H184.109ZM201.359 148.422V147.922C201.359 145.505 202.109 143.573 203.609 142.125C205.109 140.667 207.062 139.938 209.469 139.938C211.865 139.938 213.729 140.63 215.062 142.016C216.406 143.391 217.078 145.281 217.078 147.688V149.266H204.375V146.484H212.266V146.234C212.266 145.432 212.026 144.766 211.547 144.234C211.068 143.693 210.365 143.422 209.438 143.422C208.406 143.422 207.62 143.802 207.078 144.562C206.536 145.323 206.266 146.318 206.266 147.547V148.578C206.266 149.922 206.557 150.979 207.141 151.75C207.724 152.51 208.578 152.891 209.703 152.891C210.495 152.891 211.172 152.708 211.734 152.344C212.307 151.969 212.76 151.521 213.094 151L216.875 152.719C216.365 153.833 215.51 154.734 214.312 155.422C213.115 156.099 211.599 156.438 209.766 156.438C207.13 156.438 205.068 155.714 203.578 154.266C202.099 152.807 201.359 150.859 201.359 148.422ZM219.562 156V140.406H224.312L224.375 142.375H224.453C224.943 141.646 225.594 141.078 226.406 140.672C227.219 140.266 228.12 140.062 229.109 140.062C230.224 140.062 231.182 140.297 231.984 140.766C232.797 141.224 233.375 141.901 233.719 142.797H233.781C234.333 141.911 235.078 141.234 236.016 140.766C236.964 140.286 237.99 140.047 239.094 140.047C240.656 140.047 241.911 140.521 242.859 141.469C243.818 142.406 244.297 143.974 244.297 146.172V156H239.344V146.375C239.344 145.469 239.156 144.812 238.781 144.406C238.417 143.99 237.875 143.781 237.156 143.781C236.521 143.771 235.969 143.948 235.5 144.312C235.042 144.677 234.672 145.172 234.391 145.797V156H229.453V146.406C229.453 145.479 229.26 144.812 228.875 144.406C228.5 143.99 227.948 143.781 227.219 143.781C226.594 143.781 226.052 143.964 225.594 144.328C225.135 144.682 224.771 145.172 224.5 145.797V156H219.562ZM247.594 162.594V140.406H252.312L252.375 142.219H252.438C252.792 141.594 253.38 141.078 254.203 140.672C255.036 140.255 255.974 140.047 257.016 140.047C259.016 140.047 260.625 140.75 261.844 142.156C263.073 143.562 263.688 145.479 263.688 147.906V148.406C263.688 150.812 263.073 152.734 261.844 154.172C260.625 155.599 259.031 156.312 257.062 156.312C256.031 156.312 255.125 156.146 254.344 155.812C253.573 155.469 252.969 155 252.531 154.406V162.594H247.594ZM252.531 150.688C252.75 151.24 253.125 151.724 253.656 152.141C254.188 152.557 254.823 152.766 255.562 152.766C256.615 152.766 257.396 152.396 257.906 151.656C258.417 150.917 258.672 149.911 258.672 148.641V147.703C258.672 146.422 258.417 145.427 257.906 144.719C257.396 144 256.615 143.641 255.562 143.641C254.792 143.641 254.151 143.844 253.641 144.25C253.13 144.656 252.76 145.125 252.531 145.656V150.688ZM266.375 156V132.547H271.328V156H266.375ZM274.062 151.453C274.062 149.776 274.714 148.495 276.016 147.609C277.328 146.714 279.01 146.26 281.062 146.25H284.453V145.328C284.453 144.63 284.276 144.078 283.922 143.672C283.578 143.255 282.974 143.047 282.109 143.047C281.266 143.047 280.646 143.219 280.25 143.562C279.865 143.906 279.672 144.354 279.672 144.906V145.188L274.984 145.172V144.875C274.984 143.427 275.656 142.25 277 141.344C278.354 140.427 280.151 139.969 282.391 139.969C284.641 139.969 286.37 140.411 287.578 141.297C288.786 142.172 289.391 143.552 289.391 145.438V152.469C289.391 153.104 289.448 153.708 289.562 154.281C289.677 154.854 289.839 155.349 290.047 155.766V156H285.188C285.042 155.75 284.922 155.443 284.828 155.078C284.734 154.703 284.667 154.328 284.625 153.953C284.302 154.547 283.693 155.083 282.797 155.562C281.911 156.031 280.802 156.266 279.469 156.266C277.875 156.266 276.573 155.865 275.562 155.062C274.562 154.25 274.062 153.047 274.062 151.453ZM278.969 151.047C278.969 151.724 279.161 152.255 279.547 152.641C279.943 153.026 280.536 153.219 281.328 153.219C282.193 153.219 282.927 152.932 283.531 152.359C284.146 151.786 284.453 151.12 284.453 150.359V148.984H282.156C281.073 148.984 280.271 149.156 279.75 149.5C279.229 149.833 278.969 150.349 278.969 151.047ZM291.234 143.969V140.406H301.578V143.969H291.234ZM293.594 151.25V141.719L293.672 141.375V136.141H298.469V150.641C298.469 151.505 298.604 152.083 298.875 152.375C299.156 152.667 299.562 152.812 300.094 152.812C300.354 152.812 300.604 152.786 300.844 152.734C301.083 152.682 301.318 152.615 301.547 152.531V155.953C301.276 156.068 300.885 156.172 300.375 156.266C299.865 156.359 299.266 156.406 298.578 156.406C297.036 156.406 295.818 155.995 294.922 155.172C294.036 154.349 293.594 153.042 293.594 151.25ZM303.047 148.422V147.922C303.047 145.505 303.797 143.573 305.297 142.125C306.797 140.667 308.75 139.938 311.156 139.938C313.552 139.938 315.417 140.63 316.75 142.016C318.094 143.391 318.766 145.281 318.766 147.688V149.266H306.062V146.484H313.953V146.234C313.953 145.432 313.714 144.766 313.234 144.234C312.755 143.693 312.052 143.422 311.125 143.422C310.094 143.422 309.307 143.802 308.766 144.562C308.224 145.323 307.953 146.318 307.953 147.547V148.578C307.953 149.922 308.245 150.979 308.828 151.75C309.411 152.51 310.266 152.891 311.391 152.891C312.182 152.891 312.859 152.708 313.422 152.344C313.995 151.969 314.448 151.521 314.781 151L318.562 152.719C318.052 153.833 317.198 154.734 316 155.422C314.802 156.099 313.286 156.438 311.453 156.438C308.818 156.438 306.755 155.714 305.266 154.266C303.786 152.807 303.047 150.859 303.047 148.422ZM120.672 198.828C118.141 197.964 116 196.307 114.25 193.859C112.5 191.411 111.625 188.109 111.625 183.953V183.797C111.625 179.703 112.474 176.432 114.172 173.984C115.87 171.536 118.036 169.854 120.672 168.938V172.422C119.557 173.109 118.609 174.302 117.828 176C117.047 177.688 116.656 180.25 116.656 183.688V184.062C116.656 187.5 117.031 190.068 117.781 191.766C118.542 193.453 119.505 194.641 120.672 195.328V198.828ZM122.812 181.297V179.953C122.812 176.193 123.719 173.406 125.531 171.594C127.344 169.771 129.703 168.859 132.609 168.859C135.391 168.859 137.578 169.562 139.172 170.969C140.766 172.365 141.562 174.281 141.562 176.719V177.516H136.562V176.469C136.562 175.229 136.234 174.276 135.578 173.609C134.932 172.932 133.948 172.594 132.625 172.594C131.25 172.594 130.156 173.099 129.344 174.109C128.531 175.109 128.125 176.74 128.125 179V182.266C128.125 184.422 128.526 186.031 129.328 187.094C130.141 188.156 131.26 188.688 132.688 188.688C133.958 188.688 134.911 188.333 135.547 187.625C136.182 186.917 136.521 185.911 136.562 184.609V183.766H141.562V184.703C141.5 187.005 140.688 188.865 139.125 190.281C137.573 191.688 135.401 192.391 132.609 192.391C129.63 192.391 127.25 191.469 125.469 189.625C123.698 187.781 122.812 185.005 122.812 181.297ZM143.266 184.438V183.922C143.266 181.495 144.031 179.557 145.562 178.109C147.104 176.661 149.125 175.938 151.625 175.938C154.135 175.938 156.156 176.661 157.688 178.109C159.229 179.557 160 181.495 160 183.922V184.438C160 186.865 159.229 188.802 157.688 190.25C156.156 191.698 154.135 192.422 151.625 192.422C149.125 192.422 147.104 191.698 145.562 190.25C144.031 188.802 143.266 186.865 143.266 184.438ZM148.281 183.703V184.641C148.281 185.964 148.568 186.995 149.141 187.734C149.724 188.464 150.552 188.828 151.625 188.828C152.708 188.828 153.536 188.464 154.109 187.734C154.693 186.995 154.984 185.964 154.984 184.641V183.703C154.984 182.391 154.693 181.375 154.109 180.656C153.526 179.927 152.698 179.562 151.625 179.562C150.562 179.562 149.74 179.927 149.156 180.656C148.573 181.375 148.281 182.391 148.281 183.703ZM162.656 198.594V176.406H167.375L167.438 178.219H167.5C167.854 177.594 168.443 177.078 169.266 176.672C170.099 176.255 171.036 176.047 172.078 176.047C174.078 176.047 175.688 176.75 176.906 178.156C178.135 179.562 178.75 181.479 178.75 183.906V184.406C178.75 186.812 178.135 188.734 176.906 190.172C175.688 191.599 174.094 192.312 172.125 192.312C171.094 192.312 170.188 192.146 169.406 191.812C168.635 191.469 168.031 191 167.594 190.406V198.594H162.656ZM167.594 186.688C167.812 187.24 168.188 187.724 168.719 188.141C169.25 188.557 169.885 188.766 170.625 188.766C171.677 188.766 172.458 188.396 172.969 187.656C173.479 186.917 173.734 185.911 173.734 184.641V183.703C173.734 182.422 173.479 181.427 172.969 180.719C172.458 180 171.677 179.641 170.625 179.641C169.854 179.641 169.214 179.844 168.703 180.25C168.193 180.656 167.823 181.125 167.594 181.656V186.688ZM181.469 192V176.406H186.453V192H181.469ZM181.125 171.625C181.125 170.896 181.37 170.286 181.859 169.797C182.349 169.297 183.052 169.047 183.969 169.047C184.875 169.047 185.573 169.297 186.062 169.797C186.552 170.286 186.797 170.896 186.797 171.625C186.797 172.354 186.547 172.974 186.047 173.484C185.557 173.984 184.854 174.234 183.938 174.234C183.031 174.234 182.333 173.984 181.844 173.484C181.365 172.974 181.125 172.354 181.125 171.625ZM189.141 184.422V183.922C189.141 181.505 189.891 179.573 191.391 178.125C192.891 176.667 194.844 175.938 197.25 175.938C199.646 175.938 201.51 176.63 202.844 178.016C204.188 179.391 204.859 181.281 204.859 183.688V185.266H192.156V182.484H200.047V182.234C200.047 181.432 199.807 180.766 199.328 180.234C198.849 179.693 198.146 179.422 197.219 179.422C196.188 179.422 195.401 179.802 194.859 180.562C194.318 181.323 194.047 182.318 194.047 183.547V184.578C194.047 185.922 194.339 186.979 194.922 187.75C195.505 188.51 196.359 188.891 197.484 188.891C198.276 188.891 198.953 188.708 199.516 188.344C200.089 187.969 200.542 187.521 200.875 187L204.656 188.719C204.146 189.833 203.292 190.734 202.094 191.422C200.896 192.099 199.38 192.438 197.547 192.438C194.911 192.438 192.849 191.714 191.359 190.266C189.88 188.807 189.141 186.859 189.141 184.422ZM207.344 192V176.406H212.188L212.25 178.281H212.297C212.661 177.646 213.146 177.115 213.75 176.688C214.365 176.25 215.062 176.031 215.844 176.031C216.094 176.031 216.339 176.057 216.578 176.109C216.828 176.151 217.005 176.193 217.109 176.234V180.203C216.922 180.141 216.708 180.094 216.469 180.062C216.229 180.031 215.969 180.016 215.688 180.016C214.99 180.016 214.339 180.229 213.734 180.656C213.13 181.083 212.672 181.635 212.359 182.312V192H207.344ZM218.328 198.812V195.328C219.453 194.682 220.401 193.505 221.172 191.797C221.953 190.078 222.344 187.5 222.344 184.062V183.688C222.344 180.25 221.953 177.688 221.172 176C220.391 174.302 219.443 173.109 218.328 172.422V168.938C220.828 169.823 222.958 171.484 224.719 173.922C226.49 176.359 227.375 179.651 227.375 183.797V183.953C227.375 188.109 226.505 191.406 224.766 193.844C223.026 196.281 220.88 197.938 218.328 198.812Z" fill="white"/>
<path d="M176.445 61.1631C175.986 60.8495 174.778 60.7155 173.9 60.9553C173.852 60.0687 173.401 59.3216 172.576 58.6697L172.271 58.4619L172.067 58.7735C171.667 59.3892 171.498 60.2094 171.558 60.955C171.605 61.4144 171.763 61.9308 172.067 62.3055C170.924 62.9775 169.871 62.8249 165.205 62.8249H158.002C157.981 63.8927 158.15 65.9468 159.439 67.6189C159.581 67.8036 159.737 67.9823 159.906 68.1545C160.954 69.218 162.537 69.9977 164.905 70C168.516 70.0033 171.61 68.0248 173.492 63.2408C174.112 63.2511 175.746 63.3534 176.546 61.7863C176.566 61.7599 176.75 61.3707 176.75 61.3707L176.445 61.1631ZM162.703 60.1865H160.677V62.2397H162.703V60.1865ZM165.32 60.1865H163.294V62.2397H165.32V60.1865ZM167.937 60.1865H165.911V62.2397H167.937V60.1865ZM170.553 60.1865H168.528V62.2397H170.553V60.1865ZM160.086 60.1865H158.06V62.2397H160.086V60.1865ZM162.703 57.5934H160.677V59.6465H162.703V57.5934ZM165.32 57.5934H163.294V59.6465H165.32V57.5934ZM167.937 57.5934H165.911V59.6465H167.937V57.5934ZM167.937 55H165.911V57.0531H167.937V55Z" fill="white"/>
<path d="M190.572 59.3869L189.458 60.5008C191.287 62.3298 191.287 65.2727 189.458 67.0743C187.629 68.9033 184.686 68.9033 182.884 67.0743C181.055 65.2452 181.055 62.3023 182.884 60.5008L185.786 57.5991L186.199 57.1866V55L181.826 59.3731C179.391 61.8072 179.391 65.7403 181.826 68.1744C184.26 70.6085 188.193 70.6085 190.586 68.1744C193.006 65.7403 193.006 61.8347 190.572 59.3869Z" fill="white"/>
<path d="M188.385 59.1256C188.833 59.1256 189.197 58.7624 189.197 58.3142C189.197 57.8661 188.833 57.5029 188.385 57.5029C187.937 57.5029 187.574 57.8661 187.574 58.3142C187.574 58.7624 187.937 59.1256 188.385 59.1256Z" fill="white"/>
<path d="M158.273 74.0758C152.708 83.6153 140.464 86.8375 130.924 81.2728C121.385 75.7081 118.163 63.4637 123.727 53.9242C129.292 44.3847 141.536 41.1625 151.076 46.7272C153.104 47.9104 154.908 49.4416 156.405 51.2507L141 64L158.273 74.0758Z" fill="white"/>
<path d="M143.692 57.5611C143.093 58.5879 141.775 58.9347 140.748 58.3357C139.722 57.7367 139.375 56.4188 139.974 55.3919C140.573 54.3651 141.891 54.0183 142.917 54.6173C143.918 55.201 144.277 56.472 143.73 57.4931L141.833 56.4765L143.692 57.5611Z" fill="#2283E8"/>
<path d="M145.13 80.416C144.003 79.1711 144.456 75.9668 145.758 75.9668C146.378 75.9668 148.028 79.8271 147.735 80.5917C147.4 81.4648 145.993 81.3699 145.13 80.416ZM128.395 65.7298C128.266 65.3923 128.592 64.1128 129.119 62.8865C129.962 60.9276 130.235 60.6568 131.366 60.6568C133.087 60.6568 134.345 61.3808 134.345 62.371C134.345 63.5269 131.078 66.3434 129.737 66.3434C129.129 66.3434 128.525 66.0672 128.395 65.7298ZM132.705 50.3062C131.827 49.9522 132.071 49.0035 133.236 48.2404C134.578 47.3608 135.35 47.3528 136.991 48.2013C138.402 48.9308 138.678 49.9129 137.59 50.3304C136.779 50.6417 133.496 50.6254 132.705 50.3062Z" fill="#2282E7"/>
<path d="M203.427 55.0008C202.025 55.0195 200.656 55.4296 199.474 56.1848C198.292 56.94 197.345 58.0104 196.739 59.2751C196.133 60.5399 195.892 61.9488 196.044 63.343C196.196 64.7372 196.734 66.0613 197.598 67.1659L199.891 65.4821C199.334 64.7899 198.983 63.955 198.878 63.0727C198.773 62.1904 198.919 61.2964 199.298 60.493C199.677 59.6896 200.275 59.0091 201.023 58.5295C201.771 58.0499 202.639 57.7905 203.527 57.781V59.573L207.845 56.3602C206.552 55.4538 205.006 54.9781 203.427 55.0008ZM209.404 57.8341L207.111 59.5186C207.669 60.2107 208.02 61.0457 208.125 61.9281C208.23 62.8105 208.084 63.7046 207.705 64.5082C207.325 65.3117 206.728 65.9922 205.98 66.4719C205.231 66.9515 204.364 67.2109 203.475 67.2203V65.4283L199.157 68.641C200.635 69.6747 202.436 70.1434 204.23 69.9617C206.025 69.7801 207.694 68.9602 208.936 67.6513C210.177 66.3424 210.907 64.6314 210.993 62.8297C211.079 61.028 210.515 59.2552 209.404 57.8341Z" fill="white"/>
<defs>
<linearGradient id="paint0_linear_307_29" x1="101" y1="0" x2="229" y2="128" gradientUnits="userSpaceOnUse">
<stop stop-color="#394BD7"/>
<stop offset="1" stop-color="#01D0FE"/>
</linearGradient>
</defs>
</svg>
